<mxfile host="app.diagrams.net" modified="2023-05-10T19:49:40.178Z" agent="Mozilla/5.0 (X11; Linux x86_64) AppleWebKit/537.36 (KHTML, like Gecko) Chrome/113.0.0.0 Safari/537.36" etag="hTnkfxZB_qOqD0BY3Ozn" version="21.2.2" type="device">
  <diagram name="Page-1" id="iWZTqEepfwsOcXICkdcG">
    <mxGraphModel dx="1050" dy="549" grid="0" gridSize="10" guides="1" tooltips="1" connect="1" arrows="1" fold="1" page="1" pageScale="1" pageWidth="850" pageHeight="1100" math="0" shadow="0">
      <root>
        <mxCell id="0" />
        <mxCell id="1" parent="0" />
        <mxCell id="6EvJQ2SslxqrC2CBcaio-6" value="stepAB" style="edgeStyle=orthogonalEdgeStyle;rounded=0;orthogonalLoop=1;jettySize=auto;html=1;" edge="1" parent="1" source="6EvJQ2SslxqrC2CBcaio-1" target="6EvJQ2SslxqrC2CBcaio-3">
          <mxGeometry relative="1" as="geometry" />
        </mxCell>
        <mxCell id="6EvJQ2SslxqrC2CBcaio-1" value="A" style="whiteSpace=wrap;html=1;aspect=fixed;" vertex="1" parent="1">
          <mxGeometry x="80" y="280" width="80" height="80" as="geometry" />
        </mxCell>
        <mxCell id="6EvJQ2SslxqrC2CBcaio-7" value="stepFC" style="edgeStyle=orthogonalEdgeStyle;rounded=0;orthogonalLoop=1;jettySize=auto;html=1;entryX=0;entryY=0.5;entryDx=0;entryDy=0;" edge="1" parent="1" source="6EvJQ2SslxqrC2CBcaio-2" target="6EvJQ2SslxqrC2CBcaio-4">
          <mxGeometry relative="1" as="geometry" />
        </mxCell>
        <mxCell id="6EvJQ2SslxqrC2CBcaio-2" value="F" style="whiteSpace=wrap;html=1;aspect=fixed;" vertex="1" parent="1">
          <mxGeometry x="80" y="400" width="80" height="80" as="geometry" />
        </mxCell>
        <mxCell id="6EvJQ2SslxqrC2CBcaio-11" value="stepBD" style="edgeStyle=orthogonalEdgeStyle;rounded=0;orthogonalLoop=1;jettySize=auto;html=1;entryX=0;entryY=0.5;entryDx=0;entryDy=0;" edge="1" parent="1" source="6EvJQ2SslxqrC2CBcaio-3" target="6EvJQ2SslxqrC2CBcaio-8">
          <mxGeometry x="0.5652" relative="1" as="geometry">
            <Array as="points">
              <mxPoint x="400" y="250" />
            </Array>
            <mxPoint as="offset" />
          </mxGeometry>
        </mxCell>
        <mxCell id="6EvJQ2SslxqrC2CBcaio-12" style="edgeStyle=orthogonalEdgeStyle;rounded=0;orthogonalLoop=1;jettySize=auto;html=1;" edge="1" parent="1" source="6EvJQ2SslxqrC2CBcaio-3" target="6EvJQ2SslxqrC2CBcaio-9">
          <mxGeometry relative="1" as="geometry" />
        </mxCell>
        <mxCell id="6EvJQ2SslxqrC2CBcaio-3" value="B" style="whiteSpace=wrap;html=1;aspect=fixed;" vertex="1" parent="1">
          <mxGeometry x="320" y="280" width="80" height="80" as="geometry" />
        </mxCell>
        <mxCell id="6EvJQ2SslxqrC2CBcaio-13" value="stepBCE" style="edgeStyle=orthogonalEdgeStyle;rounded=0;orthogonalLoop=1;jettySize=auto;html=1;entryX=0;entryY=0.5;entryDx=0;entryDy=0;" edge="1" parent="1" source="6EvJQ2SslxqrC2CBcaio-4" target="6EvJQ2SslxqrC2CBcaio-9">
          <mxGeometry x="0.6364" relative="1" as="geometry">
            <mxPoint as="offset" />
          </mxGeometry>
        </mxCell>
        <mxCell id="6EvJQ2SslxqrC2CBcaio-4" value="C" style="whiteSpace=wrap;html=1;aspect=fixed;" vertex="1" parent="1">
          <mxGeometry x="320" y="400" width="80" height="80" as="geometry" />
        </mxCell>
        <mxCell id="6EvJQ2SslxqrC2CBcaio-8" value="D" style="whiteSpace=wrap;html=1;aspect=fixed;" vertex="1" parent="1">
          <mxGeometry x="560" y="210" width="80" height="80" as="geometry" />
        </mxCell>
        <mxCell id="6EvJQ2SslxqrC2CBcaio-9" value="E" style="whiteSpace=wrap;html=1;aspect=fixed;" vertex="1" parent="1">
          <mxGeometry x="560" y="340" width="80" height="80" as="geometry" />
        </mxCell>
      </root>
    </mxGraphModel>
  </diagram>
</mxfile>
